<svg width="100" height="100" xmlns="http://www.w3.org/2000/svg">
 <!-- Created with Method Draw - http://github.com/duopixel/Method-Draw/ -->
 <g>
  <title>background</title>
 </g>
 <g>
  <title>Layer 1</title>
  <g stroke="null" id="svg_1">
   <g stroke="null" id="svg_9">
    <path stroke="null" id="svg_1" fill-rule="evenodd" clip-rule="evenodd" fill="#3B3735" d="m8.68889,73.605335c-1.717348,-16.071802 4.798952,-29.880716 15.045959,-41.038586c-9.279877,16.401245 -7.488323,39.353856 1.344685,58.648335c1.077216,2.350957 -0.928803,1.875546 -3.87178,-0.217726c-3.057141,-2.172372 -5.938958,-4.84788 -8.660947,-7.980858c-2.593147,-2.982934 -3.451005,-5.594836 -3.857917,-9.411166z"/>
    <path stroke="null" id="svg_2" fill-rule="evenodd" clip-rule="evenodd" fill="#3B3735" d="m37.490759,95.876225c-12.578393,-10.149968 -17.73533,-24.52073 -18.379539,-39.657205c5.03625,18.157735 22.533467,33.121334 42.422413,40.518325c2.423532,0.901078 0.670304,1.984002 -2.891603,2.585808c-3.698088,0.624638 -7.62695,0.768974 -11.768646,0.480303c-3.942725,-0.274808 -6.395613,-1.518377 -9.382625,-3.927231z"/>
    <path stroke="null" id="svg_3" fill-rule="evenodd" clip-rule="evenodd" fill="#3B3735" d="m73.606443,91.259119c-16.072617,1.716533 -29.880716,-4.799768 -41.038586,-15.045959c16.401245,9.276615 39.353856,7.486692 58.648335,-1.346316c2.351772,-1.076401 1.876362,0.93125 -0.216911,3.874226c-2.173187,3.054694 -4.848695,5.935697 -7.982488,8.660947c-2.982119,2.592331 -5.595652,3.448559 -9.41035,3.857102z"/>
    <path stroke="null" id="svg_4" fill-rule="evenodd" clip-rule="evenodd" fill="#3B3735" d="m95.877333,62.455619c-10.149968,12.578393 -24.522361,17.73533 -39.65802,18.379539c18.15692,-5.035434 33.122149,-22.532651 40.518325,-42.421597c0.901893,-2.422717 1.985633,-0.668673 2.585808,2.892419c0.624638,3.696457 0.768974,7.62695 0.480303,11.76783c-0.273177,3.941909 -1.515931,6.396429 -3.926416,9.381809z"/>
    <path stroke="null" id="svg_5" fill-rule="evenodd" clip-rule="evenodd" fill="#3B3735" d="m91.257781,26.34075c1.718164,16.071802 -4.797321,29.880716 -15.045959,41.038586c9.279877,-16.401245 7.489138,-39.354671 -1.345501,-58.64752c-1.075585,-2.350957 0.93125,-1.875546 3.873411,0.216096c3.05551,2.173187 5.938143,4.849511 8.660947,7.981673c2.594778,2.982934 3.451005,5.596467 3.857102,9.411166z"/>
    <path stroke="null" id="svg_6" fill-rule="evenodd" clip-rule="evenodd" fill="#3B3735" d="m62.455912,4.06986c12.579208,10.149968 17.73533,24.52073 18.380354,39.657205c-5.035434,-18.157735 -22.533467,-33.122149 -42.422413,-40.519141c-2.424348,-0.901078 -0.669489,-1.984002 2.893234,-2.584992c3.696457,-0.624638 7.626135,-0.768974 11.766199,-0.480303c3.942725,0.275624 6.397244,1.516746 9.382625,3.927231z"/>
    <path stroke="null" id="svg_7" fill-rule="evenodd" clip-rule="evenodd" fill="#3B3735" d="m26.341859,8.688597c16.071802,-1.717348 29.8799,4.798137 41.03777,15.045144c-16.40043,-9.277431 -39.354671,-7.487507 -58.648335,1.346316c-2.350957,1.076401 -1.876362,-0.93125 0.216911,-3.873411c2.172372,-3.05551 4.848695,-5.937327 7.980858,-8.660947c2.98375,-2.593962 5.597283,-3.45019 9.412796,-3.857102z"/>
    <path stroke="null" id="svg_8" fill-rule="evenodd" clip-rule="evenodd" fill="#3B3735" d="m4.069338,37.491281c10.152414,-12.579208 24.522361,-17.73533 39.65802,-18.380354c-18.157735,5.03625 -33.122149,22.533467 -40.518325,42.423228c-0.902709,2.422717 -1.984817,0.667858 -2.584992,-2.893234c-0.624638,-3.696457 -0.769789,-7.62695 -0.482749,-11.76783c0.277255,-3.941909 1.519193,-6.396429 3.928046,-9.381809z"/>
   </g>
   <path stroke="null" id="svg_10" fill-rule="evenodd" clip-rule="evenodd" fill="#568DC3" d="m42.420184,77.159087c12.5735,-2.649413 25.898849,-20.471181 29.229983,-36.249419c1.635803,1.010349 3.101175,2.182973 4.313757,3.534997l2.026406,2.260441c0.438715,2.973149 0.503951,6.310806 -0.123949,9.871082c-2.721989,15.097333 -21.483161,26.011382 -35.446196,20.582898z"/>
   <path stroke="null" id="svg_11" fill-rule="evenodd" clip-rule="evenodd" fill="#568DC3" d="m77.181398,43.353587c-9.242366,-10.304089 -34.089279,-12.602856 -49.450819,-6.034367c-0.030172,-0.579788 -0.030987,-1.157946 0,-1.731211l0.169615,-3.113407c2.836968,-3.43225 7.282013,-7.359481 13.540629,-9.636231c14.512652,-5.221358 33.449962,5.62827 35.740575,20.515216z"/>
   <path stroke="null" id="svg_12" fill-rule="evenodd" clip-rule="evenodd" fill="#568DC3" d="m26.099669,35.49831c-0.649102,11.952123 11.251647,27.943195 24.508498,35.979503c-2.68774,1.976663 -5.562218,3.457529 -8.524766,4.080537l-2.693448,0.567557c-0.855412,-0.307427 -1.716533,-0.658888 -2.583361,-1.061722c-13.878228,-6.535056 -19.567657,-27.483278 -10.706923,-39.565874z"/>
  </g>
 </g>
</svg>