<?xml version="1.0" encoding="UTF-8"?>
<svg width="128px" height="128px" viewBox="0 0 128 128" version="1.1" xmlns="http://www.w3.org/2000/svg" xmlns:xlink="http://www.w3.org/1999/xlink">
    <!-- Generator: Sketch 44.1 (41455) - http://www.bohemiancoding.com/sketch -->
    <title>p</title>
    <desc>Created with Sketch.</desc>
    <defs></defs>
    <g id="Page-1" stroke="none" stroke-width="1" fill="none" fill-rule="evenodd">
        <g id="p" fill="#000000">
            <path d="M100.475884,26.5466238 L91.0096463,78.6109325 C89.2604502,90.0321543 77.0160772,98.778135 65.1832797,98.778135 L54.2765273,98.778135 L53.3504823,103.202572 L52.9389068,106.083601 L52.9389068,106.289389 C50.778135,118.327974 39.562701,127.794212 27.5241158,128 L27.318328,128 L49.85209,0 L65.1832797,0 L77.4276527,0 C90.1864952,0 100.681672,10.2893891 100.681672,23.2540193 C100.681672,23.2540193 100.681672,24.7974277 100.475884,26.5466238 Z M68.681672,83.1382637 L80.8231511,15.7427653 C80.8231511,12.4501608 77.9421222,9.56913183 74.4437299,9.56913183 L70.3279743,9.56913183 L56.1286174,89.5176849 L62.3022508,89.5176849 C65.3890675,89.5176849 68.0643087,87.1511254 68.4758842,84.2700965 C68.4758842,83.755627 68.681672,83.1382637 68.681672,83.1382637 Z" id="Combined-Shape"></path>
        </g>
    </g>
</svg>