<svg width="200" height="200" viewBox="0 0 200 200" fill="none" xmlns="http://www.w3.org/2000/svg">
<rect width="200" height="200" fill="white"/>
<path d="M141.176 8H66.3866C42.0168 8 8.40336 25.6471 7.56303 62.6218C6.72269 99.5966 34.4538 113.042 29.4118 131.529C24.3697 150.017 0 136.571 0 136.571V186.992C57.1429 203.798 86.5546 170.185 86.5546 131.529C86.5546 92.8739 68.0672 86.9916 68.0672 71.8655C68.0672 56.7395 83.1933 56.7395 83.1933 56.7395H127.731C127.731 56.7395 142.857 55.8992 142.857 71.8655C142.857 87.8319 127.731 87.8319 127.731 87.8319H105.042L146.218 185.311H200L168.067 109.681C168.067 109.681 193.277 94.5 193.277 60.9412C193.277 8 141.176 8 141.176 8Z" fill="black"/>
</svg>
