<svg width="200" height="200" viewBox="0 0 200 200" fill="none" xmlns="http://www.w3.org/2000/svg">
<g clip-path="url(#clip0)">
<rect width="200" height="200" fill="white"/>
<path fill-rule="evenodd" clip-rule="evenodd" d="M24.3715 0C22.7904 0.0635862 21.5063 0.307658 20.5593 0.747606C9.99156 5.65702 6.05293 52.742 6 89.0445C26.8545 83.6169 50.8909 82.5745 73.1993 83.4826C71.2192 42.1075 47.1296 1.15773 24.3715 0ZM95.4242 95.7624C111.355 94.1506 128.999 93.1464 148.238 93.1464C148.238 93.1464 124.751 87.716 93.9543 84.8766C89.0765 55.5779 76.5771 27.0183 50.8501 5.52819C72.0922 12.388 100.125 24.8182 123.038 38.2671C161.678 60.9469 194.717 84.7465 194.717 98.1864C194.717 111.626 156.638 137.946 123.038 159.786C112.648 166.539 100.866 173.29 89.0655 179.28C94.444 156.053 98.5857 125.931 95.4242 95.7624ZM72.967 98.5658C41.8072 103.214 19.1936 109.839 6.40207 114.251C7.6129 150.892 11.9817 196.411 25.0392 199.545C26.6454 199.931 28.5639 200.065 30.7496 199.972C46.5971 198.329 68.1859 180.776 72.967 98.5658Z" fill="#79032F"/>
</g>
<defs>
<clipPath id="clip0">
<rect width="200" height="200" fill="white"/>
</clipPath>
</defs>
</svg>
