<svg width="200" height="200" viewBox="0 0 200 200" fill="none" xmlns="http://www.w3.org/2000/svg">
<rect width="200" height="200" fill="#E5E5E5"/>
<rect width="200" height="200" fill="white"/>
<path d="M74.8199 73.924H31.5037V200H74.8199V137.722L117.632 200H161.956V73.924H117.632V137.722L74.8199 73.924Z" fill="black"/>
<path fill-rule="evenodd" clip-rule="evenodd" d="M135.765 64.8101C153.568 64.8101 168 50.3019 168 32.4051C168 14.5082 153.568 0 135.765 0C117.962 0 103.529 14.5082 103.529 32.4051C103.529 50.3019 117.962 64.8101 135.765 64.8101ZM135.765 41.519C140.772 41.519 144.831 37.4385 144.831 32.4051C144.831 27.3716 140.772 23.2911 135.765 23.2911C130.758 23.2911 126.699 27.3716 126.699 32.4051C126.699 37.4385 130.758 41.519 135.765 41.519Z" fill="black"/>
<path fill-rule="evenodd" clip-rule="evenodd" d="M31 0H54.1691V32.4051C54.1691 37.4385 58.2282 41.519 63.2353 41.519C68.2424 41.519 72.3015 37.4385 72.3015 32.4051V0H95.4706V32.4051C95.4706 50.3019 81.0384 64.8101 63.2353 64.8101C45.4322 64.8101 31 50.3019 31 32.4051V0Z" fill="black"/>
</svg>
